# xmcd
# 
# Track frame offsets:
#     150
#     30480
#     50286
#     78881
#     101851
#     125726
#     151247
#     176007
# 
# Disc length: 2598
# 
# Revision: 1
# Processed by: cddbd v1.5.2PL0 Copyright (c) Steve Scherf et al.
# Submitted via: fre:ac v1.0.31
# 
DISCID=5d0a2408
DTITLE=Barrelhouse - Hard To Cover
DYEAR=1978
DGENRE=Blues
TTITLE0=Every night is Saturday night
TTITLE1=Ain't good for nothing
TTITLE2=Memories
TTITLE3=You don't have to go
TTITLE4=Blue river rising
TTITLE5=One more lonely night
TTITLE6=Don't hold your breath
TTITLE7=Tennesee flat Top Box
EXTD=
EXTT0=
EXTT1=
EXTT2=
EXTT3=
EXTT4=
EXTT5=
EXTT6=
EXTT7=
PLAYORDER=
